<?xml version="1.0" encoding="UTF-8"?>
<svg width="50mm" height="50mm" version="1.1" viewBox="0 0 210 297" xmlns="http://www.w3.org/2000/svg" xmlns:cc="http://creativecommons.org/ns#" xmlns:dc="http://purl.org/dc/elements/1.1/" xmlns:rdf="http://www.w3.org/1999/02/22-rdf-syntax-ns#">
 <metadata>
  <rdf:RDF>
   <cc:Work rdf:about="">
    <dc:format>image/svg+xml</dc:format>
    <dc:type rdf:resource="http://purl.org/dc/dcmitype/StillImage"/>
    <dc:title/>
   </cc:Work>
  </rdf:RDF>
 </metadata>
 <path d="m203.42-56.507h-236.75c-21.238 0-38.297 16.015-38.297 35.86v180c0 19.845 17.06 35.86 38.297 35.86h25.067v53.268c0 3.1334 2.0889 6.2668 5.2224 7.6594 1.3926 0.6961 2.437 0.6961 3.8297 0.6961 2.0889 0 4.1779-0.6961 5.9187-1.7408l79.032-59.883h117.68c21.238 0 38.297-16.015 38.297-35.86v-180c0-19.845-17.06-35.86-38.297-35.86zm-181.74 151.8c4.5261 5.5706 10.445 8.3558 17.408 8.3558 7.3114 0 12.882-2.4371 16.712-7.3113 2.089-2.7853 3.8298-6.615 5.2224-11.837h21.238c-1.7408 11.141-6.615 20.193-13.926 27.156-7.3112 6.9632-17.06 10.445-28.897 10.445-14.623 0-25.764-4.5259-34.119-13.926-8.3558-9.4002-12.534-22.282-12.534-38.645 0-17.756 4.8741-31.334 14.274-41.083 8.3558-8.3558 18.452-12.534 31.334-12.534 17.06 0 29.245 5.5706 37.253 16.712 4.1779 6.2668 6.615 12.534 6.9632 18.801h-21.238c-1.3927-4.8741-3.1335-8.704-5.2224-11.141-3.8297-4.1779-9.4002-6.2668-17.06-6.2668-7.6594 0-13.578 3.1334-17.756 9.4002-4.5261 6.2668-6.615 14.971-6.615 26.46 0 11.141 2.4371 19.845 6.9632 25.416zm146.23 17.408c-7.3114 6.2668-17.408 9.0522-30.29 9.0522-13.23 0-24.023-3.1335-31.682-9.0522-7.6594-5.9187-11.489-14.274-11.489-25.067h20.193c0.6961 4.5261 2.089 8.0076 3.8297 10.445 3.4817 4.1779 9.4003 6.2668 18.104 6.2668 5.2223 0 9.4002-0.6961 12.534-1.7408 5.9187-2.089 9.052-5.9187 9.052-11.837 0-3.4815-1.3926-5.9187-4.526-7.6594-3.1335-1.7408-7.6596-3.4815-14.275-4.8742l-11.141-2.437c-10.793-2.4371-18.104-4.8743-22.282-7.6596-6.9631-4.5261-10.445-12.186-10.445-21.934 0-9.0522 3.4817-16.712 10.097-22.63 6.6149-5.9188 16.712-9.0522 29.593-9.0522 10.793 0 20.193 2.7853 27.853 8.3558 7.6594 5.5705 11.837 13.926 12.186 24.719h-20.541c-0.34871-6.2668-3.1334-10.445-8.3558-12.882-3.4815-1.7408-7.6594-2.4371-12.534-2.4371-5.5705 0-10.097 1.0448-13.578 3.4817-3.4817 2.089-4.8743 5.2223-4.8743 9.4002 0 3.4817 1.7408 6.2668 4.8743 8.0076 2.089 1.0448 6.6149 2.4371 13.578 4.1779l17.756 4.1779c7.6594 1.7409 13.578 4.1779 17.408 7.3114 5.9187 4.8743 9.0522 11.837 9.0522 20.889 0.6961 9.0522-2.7853 16.712-10.097 22.978z" fill="#33475b" stroke-width="3.4816"/>
</svg>
